# xmcd
#
# Track frame offsets: 
#        151
#        21060
#        39643
#        59656
#        78843
#        96688
#        110701
#        125984
#        146077
#        164662
#        185121
#        203172
#        218679
#        239588
#
# Disc length: 3443 seconds
#
# Revision: 2
# Processed by: cddbd v1.5.2PL0 Copyright (c) Steve Scherf et al.
# Submitted via: ExactAudioCopy v1.0b3
#
DISCID=e10d710e
DTITLE=蔡小虎 - 一生只有你
DYEAR=2002
DGENRE=Pop
TTITLE0=一生只有你
TTITLE1=酒後吐真言
TTITLE2=疼你若生命
TTITLE3=吃苦當做吃補
TTITLE4=春風陣陣吹
TTITLE5=一個人恰自由
TTITLE6=無緣的祝福
TTITLE7=相對的心
TTITLE8=愈搏愈重
TTITLE9=鄉土情
TTITLE10=山盟海誓
TTITLE11=放捨我你就不對
TTITLE12=一生只有你 (卡拉)
TTITLE13=酒後吐真言 (卡拉)
EXTD=
EXTT0=
EXTT1=
EXTT2=
EXTT3=
EXTT4=
EXTT5=
EXTT6=
EXTT7=
EXTT8=
EXTT9=
EXTT10=
EXTT11=
EXTT12=
EXTT13=
PLAYORDER=
